# xmcd CD database file
#
# Track frame offsets:
#	150
#	18375
#	33500
#	51812
#	70972
#	87725
#	105315
#	120050
#	137782
#
# Disc length: 2080 seconds
#
# Revision: 0
# Processed by: cddbd v1.5.1PL0 Copyright (c) Steve Scherf et al.
# Submitted via: CDex 1.51
#
DISCID=71081e09
DTITLE=honey honey - GO! SOLID
DYEAR=1997
DGENRE=J-POP
TTITLE0=Hello There
TTITLE1=STRAWBERRY
TTITLE2=Darling, Darling
TTITLE3=Fallin' Heaven
TTITLE4=POWER BLUE
TTITLE5=Tragic Day
TTITLE6=If You Try
TTITLE7=Throw away
TTITLE8=約束しようよ
EXTD=YEAR: 1997
EXTT0=
EXTT1=
EXTT2=
EXTT3=
EXTT4=
EXTT5=
EXTT6=
EXTT7=
EXTT8=
PLAYORDER=
